<svg xmlns="http://www.w3.org/2000/svg" viewBox="0 0 3818.1 1354.89"><defs><style>.cls-1{fill:#fff;}.cls-2{fill:#1ca8ff;}</style></defs><g id="Camada_2" data-name="Camada 2"><g id="Camada_1-2" data-name="Camada 1"><path class="cls-1" d="M1107.59,696.43q61.17-30.88,136.3-30.89,88.42,0,159.9,42.41t112.68,120.53q41.19,78.13,41.2,178.7t-41.2,179.91q-41.21,79.35-113.27,123.56t-159.31,44.22q-77.54,0-137.5-30.28-46.34-23.4-77.83-56.93a10,10,0,0,0-17.27,6.86v75.37a5,5,0,0,1-5,5H878.18a5,5,0,0,1-5-5V514.58a5,5,0,0,1,5-5h128.11a5,5,0,0,1,5,5V747.85a10,10,0,0,0,17.32,6.8Q1060.32,720.3,1107.59,696.43Zm281.08,191.42q-28.49-50.26-75.13-76.33a201.74,201.74,0,0,0-99.93-26q-52.11,0-98.74,26.65t-75.11,77.53q-28.47,50.9-28.47,119.94t28.47,120.53q28.46,51.49,75.11,78.14t98.74,26.66a194.76,194.76,0,0,0,99.93-27.25q46.65-27.26,75.13-79.36t28.47-121.14Q1417.14,938.14,1388.67,887.85Z"/><path class="cls-1" d="M1690.32,829.09q41.78-77.54,113.87-120.53t159.31-43q78.74,0,137.49,30.89,45.38,23.85,76.66,56.76a10,10,0,0,0,17.23-6.9V670.77a5,5,0,0,1,5-5h129.33a5,5,0,0,1,5,5v679.12a5,5,0,0,1-5,5H2199.88a5,5,0,0,1-5-5v-77.77a10,10,0,0,0-17.28-6.85q-31.62,33.75-78.43,58.1-60.55,31.5-138.1,31.5-86,0-157.49-44.22t-113.26-123.56q-41.82-79.36-41.8-179.91T1690.32,829.09Zm476.09,60.57q-28.48-50.88-74.5-77.53a195,195,0,0,0-99.34-26.65,198.48,198.48,0,0,0-99.35,26q-46,26.07-74.5,76.33t-28.47,119.33q0,69,28.47,121.14t75.11,79.36q46.64,27.25,98.74,27.25a194.73,194.73,0,0,0,99.34-26.66q46-26.64,74.5-78.14t28.47-120.53Q2194.88,940.56,2166.41,889.66Z"/><path class="cls-1" d="M2561.25,1326.4q-62.39-28.45-98.73-77.53c-23.17-31.27-36-60-38.49-98.26a5,5,0,0,1,5-5.34h133.19a5,5,0,0,1,5,4.39c3.4,26.33,16.77,42.45,40.11,60.44q36.94,28.49,92.69,28.47,58.13,0,90.25-22.41t32.11-57.56q0-37.55-35.75-55.72t-113.27-40q-75.12-20.58-122.36-40t-81.78-59.36q-34.52-40-34.51-105.41,0-53.29,31.5-97.51T2556.41,691q58.73-25.46,135.07-25.45,113.86,0,183.54,57.55,67.76,56,74.2,151.53a5,5,0,0,1-5,5.36H2815.94a5,5,0,0,1-5-4.44q-4.84-41.71-35.92-67-32.71-26.64-88.42-26.65-54.51,0-83.59,20.61T2574,857q0,26.67,19.37,44.82t47.25,28.47q27.87,10.32,82.39,26,72.69,19.41,119.33,39.37a222.4,222.4,0,0,1,80.57,58.77q33.9,38.76,35.12,103,0,57-31.5,101.76t-89,70.27q-57.57,25.42-135.08,25.44Q2623.64,1354.87,2561.25,1326.4Z"/><path class="cls-1" d="M3691.87,1061.7H3201.53a10,10,0,0,0-9.94,11.14q8.72,72.26,58.25,117.28,53.29,48.47,130.86,48.45,109.78,0,156.1-90.54a5,5,0,0,1,4.46-2.76H3680.2a5,5,0,0,1,4.72,6.68q-30.91,87.55-107.38,144.17-79.35,58.76-196.84,58.75-95.72,0-171.44-43t-118.72-121.16q-43-78.14-43-181.11t41.8-181.12q41.79-78.15,117.5-120.53t173.86-42.41q94.47,0,168.38,41.19t115.09,115.7q41.2,74.51,41.2,171.42a451.08,451.08,0,0,1-3.58,59.14A10,10,0,0,1,3691.87,1061.7ZM3550.78,950.24a10,10,0,0,0,10-10.6q-4.55-69-54.09-111.76-53.29-46-132-46-71.49,0-122.36,45.43-47,41.93-58.84,111.22a10,10,0,0,0,9.85,11.75Z"/><path class="cls-2" d="M876,196.09a11.59,11.59,0,0,0-.37-16.1A618.06,618.06,0,0,0,722.15,68.16q-4.08-2.1-8.2-4.15A614.71,614.71,0,0,0,442,0h-4.45a614.71,614.71,0,0,0-272,64q-4.11,2.05-8.2,4.15a618.53,618.53,0,0,0-154,112.3,11.6,11.6,0,0,0-.37,16.09L79.87,279.8a11.6,11.6,0,0,0,16.8.23l.55-.55a481.25,481.25,0,0,1,685.12,0l.08.09a11.61,11.61,0,0,0,16.8-.24Z"/><path class="cls-1" d="M782.34,663.6A342.58,342.58,0,0,0,233.79,389.87q-9.82,7.39-19.08,15.48a13.61,13.61,0,0,0-1,19.51l74.14,80.36a13.66,13.66,0,0,0,18.85,1.17A206,206,0,0,1,645.76,663.6V724a6.9,6.9,0,0,1-10.83,5.67h0a341,341,0,0,0-194.46-61l.2.2h-1.79l.2-.2a341,341,0,0,0-194.45,61q-5.5,3.81-10.84,7.84a344,344,0,0,0-89.25,99.89A340.13,340.13,0,0,0,101,960a343.79,343.79,0,0,0-3.81,50.55v.7a345.93,345.93,0,0,0,2.1,38.15,341,341,0,0,0,66.28,167.24A344.41,344.41,0,0,0,233.79,1285l.59.44a340.86,340.86,0,0,0,193.85,68.19h23.09a340.84,340.84,0,0,0,193.85-68.19l.59-.44h0v.44A68.18,68.18,0,0,0,714,1353.63h63.39a5,5,0,0,0,5-5V1011.27c0-.23,0-.47,0-.7h0ZM641,1055.38a207.49,207.49,0,1,1,4.73-44.11A205.37,205.37,0,0,1,641,1055.38Z"/><path class="cls-1" d="M3790.55,672.91a53.85,53.85,0,0,1,20.26,20.85,60.42,60.42,0,0,1,7.29,29.63,61.35,61.35,0,0,1-7.29,29.79,53.54,53.54,0,0,1-20.26,21,60.48,60.48,0,0,1-58.67,0,53.45,53.45,0,0,1-20.25-21,61.35,61.35,0,0,1-7.29-29.79,60.42,60.42,0,0,1,7.29-29.63,53.75,53.75,0,0,1,20.25-20.85,60.48,60.48,0,0,1,58.67,0Zm-3.87,94.56A44.73,44.73,0,0,0,3804,749.3a54.7,54.7,0,0,0,6.11-25.91,53.82,53.82,0,0,0-6.11-25.76,45,45,0,0,0-17.27-18,49.35,49.35,0,0,0-25.46-6.55q-21.75,0-35.15,14.15t-13.4,36.18a54.82,54.82,0,0,0,6.11,25.91,45.1,45.1,0,0,0,17.12,18.17,48.59,48.59,0,0,0,25.32,6.55A49.35,49.35,0,0,0,3786.68,767.47Zm-4.91-44.82a19.92,19.92,0,0,1-11.67,5.66.68.68,0,0,0-.46,1.08l16.86,23.46a1.37,1.37,0,0,1-1.08,2.18l-7.67.21a1.36,1.36,0,0,1-1.17-.6l-17.83-25.89a.73.73,0,0,0-.57-.3H3750a.69.69,0,0,0-.69.69v24.74a1.37,1.37,0,0,1-1.37,1.38h-6.78a1.37,1.37,0,0,1-1.37-1.38v-61a1.37,1.37,0,0,1,1.37-1.38H3766q9.54,0,15,4.77t5.51,13.7A17.46,17.46,0,0,1,3781.77,722.65Zm-32.47-2.93a.69.69,0,0,0,.69.69h15.1q12.21,0,12.21-10.42,0-5.07-3.28-7.6c-2.18-1.68-5.16-2.53-8.93-2.53H3750a.69.69,0,0,0-.69.69Z"/></g></g></svg>