<svg xmlns="http://www.w3.org/2000/svg" viewBox="0 0 944.98 1411.86"><defs><style>.cls-1{fill:#fff;}</style></defs><g id="Camada_2" data-name="Camada 2"><g id="Camada_1-2" data-name="Camada 1"><path class="cls-1" d="M876,254.31a11.59,11.59,0,0,0-.37-16.1,618.8,618.8,0,0,0-153.5-111.83q-4.08-2.1-8.2-4.14a614.84,614.84,0,0,0-272-64h-4.45a614.84,614.84,0,0,0-272,64q-4.11,2-8.2,4.14a619.27,619.27,0,0,0-154,112.3,11.6,11.6,0,0,0-.37,16.09L79.87,338a11.59,11.59,0,0,0,16.8.24l.55-.56a482.12,482.12,0,0,1,136.57-97A481,481,0,0,1,714,280.2a485.47,485.47,0,0,1,68.39,57.5l.08.09a11.6,11.6,0,0,0,16.8-.24Z"/><path class="cls-1" d="M782.34,721.82A341,341,0,0,0,714,516.43a344.6,344.6,0,0,0-68.19-68.34,342.68,342.68,0,0,0-412,0q-9.82,7.41-19.08,15.48a13.61,13.61,0,0,0-1,19.51l74.14,80.36a13.65,13.65,0,0,0,18.85,1.17A206,206,0,0,1,645.76,721.82v60.44a6.9,6.9,0,0,1-10.83,5.66h0a340.93,340.93,0,0,0-194.46-61l.2.19h-1.79l.2-.19a340.9,340.9,0,0,0-194.45,61q-5.5,3.83-10.84,7.84a344.18,344.18,0,0,0-89.25,99.9A340,340,0,0,0,101,1018.24a343.89,343.89,0,0,0-3.81,50.55v.7a345.8,345.8,0,0,0,2.1,38.15,341.07,341.07,0,0,0,66.28,167.25,344.36,344.36,0,0,0,68.19,68.33l.59.45a340.86,340.86,0,0,0,193.85,68.19h23.09a340.84,340.84,0,0,0,193.85-68.19l.59-.45h0v.45A68.19,68.19,0,0,0,714,1411.86h63.39a5,5,0,0,0,5-5V1069.49c0-.23,0-.46,0-.7h0ZM641,1113.61a207.53,207.53,0,1,1,4.73-44.12A205.33,205.33,0,0,1,641,1113.61Z"/><path class="cls-1" d="M917.43,7.59a53.82,53.82,0,0,1,20.25,20.85A60.5,60.5,0,0,1,945,58.08a61.29,61.29,0,0,1-7.3,29.78,53.45,53.45,0,0,1-20.25,21,60.41,60.41,0,0,1-58.67,0,53.45,53.45,0,0,1-20.25-21,61.18,61.18,0,0,1-7.3-29.78,60.39,60.39,0,0,1,7.3-29.64A53.82,53.82,0,0,1,858.76,7.59a60.48,60.48,0,0,1,58.67,0Zm-3.87,94.56A44.77,44.77,0,0,0,930.83,84a54.88,54.88,0,0,0,6.11-25.91,54,54,0,0,0-6.11-25.77,45.1,45.1,0,0,0-17.27-18A49.48,49.48,0,0,0,888.1,7.74q-21.75,0-35.15,14.15t-13.4,36.19A54.87,54.87,0,0,0,845.65,84a45.1,45.1,0,0,0,17.13,18.16,48.59,48.59,0,0,0,25.32,6.55A49.38,49.38,0,0,0,913.56,102.15Zm-4.92-44.82A19.86,19.86,0,0,1,897,63a.69.69,0,0,0-.46,1.08l16.87,23.46a1.38,1.38,0,0,1-1.08,2.18l-7.67.21a1.41,1.41,0,0,1-1.18-.59L885.62,63.44a.68.68,0,0,0-.57-.3h-8.18a.69.69,0,0,0-.69.69V88.56a1.38,1.38,0,0,1-1.38,1.38H868a1.38,1.38,0,0,1-1.38-1.38v-61A1.38,1.38,0,0,1,868,26.21h24.83q9.52,0,15,4.76t5.51,13.7A17.41,17.41,0,0,1,908.64,57.33Zm-32.46-2.92a.68.68,0,0,0,.69.68H892q12.21,0,12.21-10.42c0-3.37-1.1-5.91-3.28-7.59s-5.16-2.53-8.93-2.53h-15.1a.69.69,0,0,0-.69.69Z"/></g></g></svg>